<svg id="Layer_1" data-name="Layer 1" xmlns="http://www.w3.org/2000/svg" width="424.35mm" height="228.35mm" viewBox="0 0 1202.89 647.3">
  <defs>
    <style>
      .cls-1 {
        fill: none;
        stroke: #221e1f;
        stroke-miterlimit: 10;
      }
    </style>
  </defs>
  <path class="cls-1" d="M-109.37,68.51h-11.29L-134.25,51l26.94-63.35,21-2.36L-84-2.35h6.63l4.8-10.36A21.27,21.27,0,0,1-53.25-25H132.62a21.27,21.27,0,0,1,19.29,12.32l4.8,10.36h6.63l2.31-12.35,21,2.36L213.63,51,200,68.51H188.5l28.35,155.91,8.5-8.51A428,428,0,0,1,281,29.09a56.69,56.69,0,0,1,98.45,0,427.88,427.88,0,0,1,55.66,186.82l8.5,8.51L472,68.51H460.44L446.85,51l26.94-63.35,21-2.36,2.31,12.35h6.63l4.8-10.36A21.29,21.29,0,0,1,527.85-25H713.73A21.29,21.29,0,0,1,733-12.71l4.79,10.36h6.64l2.3-12.35,21,2.36,27,63.35-13.59,17.5H769.61L798,224.42l8.51-8.51A427.87,427.87,0,0,1,862.11,29.09a56.69,56.69,0,0,1,98.45,0,427.88,427.88,0,0,1,55.66,186.82l5.67,8.51V465.36L911.34,578.75H852.7L800.06,465.36l0-.09a2.23,2.23,0,0,0-1.75-1.3,2.26,2.26,0,0,0-2,.78l-.51.61h0l-11.79,14,8.36,17.94-2.83,123.94H727.09l-42.52-42.52h-65.2v11.34l-31.18,31.18H454.39l-8.5-155.18a2.27,2.27,0,0,0-3.89-1.46L330.24,578.75H271.59L219,465.36l-.05-.09a2.23,2.23,0,0,0-1.76-1.3,2.26,2.26,0,0,0-2,.78l-.51.61h0l-11.78,14,8.36,17.94-2.83,123.94H146l-42.52-42.52H38.27v11.34L7.09,621.27h-133.8l-8.71-157.45-22.71-12.62A42.52,42.52,0,0,1-180,414V233.76l42.52-9.34,28.35-155.91Z" transform="translate(180.5 25.53)"/>
</svg>
