<?xml version="1.0" encoding="utf-8"?>
<!-- Generator: Adobe Illustrator 16.0.0, SVG Export Plug-In . SVG Version: 6.00 Build 0)  -->
<!DOCTYPE svg PUBLIC "-//W3C//DTD SVG 1.1//EN" "http://www.w3.org/Graphics/SVG/1.1/DTD/svg11.dtd">
<svg version="1.1" id="Layer_1" xmlns="http://www.w3.org/2000/svg" xmlns:xlink="http://www.w3.org/1999/xlink" x="0px" y="0px"
	 width="841.89px" height="595.28px" viewBox="0 0 841.89 595.28" enable-background="new 0 0 841.89 595.28" xml:space="preserve">
<path fill="none" stroke="#000000" stroke-width="0.216" stroke-miterlimit="2.6131" d="M208.476-2.611h425.198 M633.674-1.193
	v337.322 M633.674,337.546l-425.198,0.001 M718.713-1.193v337.322 M633.674,336.129h83.621h106.301 M832.1,327.625
	c0,4.694-3.811,8.504-8.504,8.504 M633.674-1.193h83.621h106.301 M832.1,7.311v320.314 M823.596-1.193
	c4.693,0,8.504,3.809,8.504,8.504 M633.674,425.42H208.476 M633.674,421.168h75.116 M717.295,412.664
	c0,4.693-3.809,8.504-8.505,8.504 M717.295,336.129v76.535 M633.674-86.234h75.116c4.696,0,8.505,3.811,8.505,8.504 M717.295-1.193
	V-77.73 M633.674,336.129v420.943c0,4.695-3.811,8.506-8.504,8.506H457.926 M384.224,765.578H216.98
	c-4.693,0-8.504-3.811-8.504-8.504 M208.476-90.486h171.496 M462.178-90.486h171.496 M633.674-1.193v-194.174 M625.17-203.871
	c4.693,0,8.504,3.809,8.504,8.504 M216.98-203.871h408.19 M208.476-195.367c0-4.695,3.811-8.504,8.504-8.504 M208.476-1.193v337.322
	 M123.437-1.193v337.322 M208.476,336.129h-83.621H18.554c-4.693,0-8.504-3.81-8.504-8.504 M208.476-1.193h-83.621H18.554
	 M10.05,7.311v320.314 M10.05,7.311c0-4.695,3.811-8.504,8.504-8.504 M208.476,421.168h-75.117c-4.695,0-8.504-3.811-8.504-8.504
	 M124.855,336.129v76.535 M208.476-86.234h-75.117 M124.855-77.73c0-4.693,3.809-8.504,8.504-8.504 M124.855-1.193V-77.73
	 M208.476,336.129v420.945 M208.476-1.193v-194.174 M378.555,774.082l6.437,17.992 M395.667,799.594
	c-4.777,0-9.066-3.021-10.675-7.52 M384.224,765.578l-5.669,8.504 M463.596,774.082l-6.438,17.992 M457.926,765.578l5.67,8.504
	 M395.667,799.594h50.815 M457.158,792.074c-1.609,4.498-5.898,7.52-10.676,7.52 M384.224,765.578h73.702 M384.79-93.32
	l-4.818,2.834 M384.79-93.32h72.569 M462.178-90.486l-4.818-2.834"/>
</svg>
